<svg xmlns="http://www.w3.org/2000/svg" viewBox="0 0 200 67.03"><defs><style>.cls-1{isolation:isolate;}.cls-2{mix-blend-mode:luminosity;}.cls-3{fill:#646464;}.cls-4{fill:#959595;}.cls-5{fill:#838383;}</style></defs><title>Artboard 2</title><g class="cls-1"><g id="Layer_1" data-name="Layer 1"><g class="cls-2"><path class="cls-3" d="M91,61v2.92H83V18.42c.24,0,.44-.05.64-.05,2.29,0,4.57,0,6.86,0,.58,0,.74.17.74.74,0,4.46,0,8.92,0,13.38v1a4.94,4.94,0,0,0,.5-.39c2.22-2.26,5-2.92,8-2.83a12.75,12.75,0,0,1,5.27,1.29,9.62,9.62,0,0,1,5.13,7,43.57,43.57,0,0,1,.68,10.2,32.25,32.25,0,0,1-.81,7.83c-1.16,4.46-4.15,7.15-9.28,7.68a18.37,18.37,0,0,1-3.92-.12,8.77,8.77,0,0,1-5.12-2.55l-.45-.43A1.5,1.5,0,0,0,91,61Zm11.72-13.73a28.61,28.61,0,0,0-.81-6.06,4.71,4.71,0,0,0-2.27-2.93,5.28,5.28,0,0,0-7.87,3.49,26,26,0,0,0,0,11.13,4.66,4.66,0,0,0,2.53,3.45,5.25,5.25,0,0,0,7.7-3.54A53.75,53.75,0,0,0,102.74,47.27Z"/><path class="cls-3" d="M22.49,63.91V61.17c-.26.2-.42.31-.56.43a9.42,9.42,0,0,1-6.87,2.63,23.36,23.36,0,0,1-4.74-.43c-4.07-.93-6.36-3.65-7.1-7.69a10.33,10.33,0,0,1,.65-6.37c1.46-3.17,4.13-4.68,7.41-5.27a22.67,22.67,0,0,1,3.59-.28c2.44,0,4.89,0,7.32,0,1-3.54-1-6.55-4.53-6.84a24.67,24.67,0,0,0-3.1,0,6.15,6.15,0,0,0-4.23,2c-.21.21-.39.46-.61.73-1-.93-1.85-1.77-2.71-2.62S5.32,35.7,4.4,34.78c.31-.32.61-.65.94-1a12.44,12.44,0,0,1,7.55-3.41,27.64,27.64,0,0,1,8.89.35c5.69,1.26,8.76,5,8.81,10.88.07,7.27,0,14.55,0,21.83a4,4,0,0,1,0,.44Zm-4-14V50a41,41,0,0,0-4.15,0,3.7,3.7,0,0,0-.24,7.34,10,10,0,0,0,4.74-.14,4.2,4.2,0,0,0,3.32-3.73c.11-1,.09-2,.15-3,0-.49-.16-.65-.64-.64C20.63,49.87,19.57,49.86,18.51,49.86Z"/><path class="cls-4" d="M167.41,54.28l4.64,5c-.66.57-1.43,1.29-2.26,1.93a14.63,14.63,0,0,1-8.63,3,22.38,22.38,0,0,1-6.87-.59,12,12,0,0,1-8.65-8,23.64,23.64,0,0,1,.24-16.93c2.17-5.37,6.35-8.09,12.13-8.36a14.27,14.27,0,0,1,9.19,2.45,13.63,13.63,0,0,1,5.6,9.38c.36,2.31.31,4.69.46,7,0,.55-.29.59-.71.59H153.21c-.87,0-1,.1-.87,1a6.94,6.94,0,0,0,7.28,6.66,9.47,9.47,0,0,0,7.19-2.66C166.94,54.61,167.1,54.52,167.41,54.28Zm-8.65-10.06c1.92,0,3.84,0,5.75,0,.58,0,.75-.22.64-.75s-.13-1-.26-1.5a6.31,6.31,0,0,0-10.13-3.61,7.2,7.2,0,0,0-2.43,5.33c0,.51.31.52.68.52Z"/><path class="cls-4" d="M122.55,33.6l.57-.48c4-3.5,10.5-3.81,14.57-.66a10.54,10.54,0,0,1,4.08,7.59,35.92,35.92,0,0,1,.15,3.59q0,9.68,0,19.35c0,.92,0,.92-.9.92-2.12,0-4.25,0-6.37,0-.66,0-.82-.22-.82-.84q0-9.23,0-18.44a13.19,13.19,0,0,0-.27-2.81A5.18,5.18,0,0,0,128,37.6a5.28,5.28,0,0,0-5.36,4.65,16,16,0,0,0-.14,2.07c0,6.24,0,12.48,0,18.72,0,.71-.2.9-.9.89-2.15,0-4.3,0-6.45,0-.57,0-.76-.17-.76-.75q0-15.91,0-31.82c0-.6.22-.74.77-.74q3.23,0,6.45,0c.6,0,.76.22.73.77,0,.71,0,1.42,0,2.13Z"/><path class="cls-3" d="M58.31,31.85c1.38-.37,2.67-.81,4-1a22.65,22.65,0,0,1,11.29.71,9.72,9.72,0,0,1,6.93,9.24c.14,4.73.09,9.47.11,14.21,0,2.82,0,5.64,0,8.46,0,.61-.18.79-.79.78-2.19,0-4.39,0-6.58,0-.23,0-.45,0-.76,0V61.43a1.66,1.66,0,0,0-.32.17,9.69,9.69,0,0,1-6.29,2.85,16.63,16.63,0,0,1-6.24-.57,9.29,9.29,0,0,1-6.56-8.35,10.47,10.47,0,0,1,1-6.11,9.36,9.36,0,0,1,6.93-4.67,19.52,19.52,0,0,1,3.24-.3c2.33,0,4.67,0,7,0,1,0,1,0,1-1,0-.39,0-.79,0-1.18a4.37,4.37,0,0,0-4.1-4.65,14.24,14.24,0,0,0-5,.14.76.76,0,0,1-.63-.14c-.67-1-1.26-2-2-2.94S59.18,32.9,58.31,31.85ZM72.4,50.12c-2.67,0-5.09,0-7.51,0a4.37,4.37,0,0,0-1,.18,3.68,3.68,0,0,0-.05,7.18,9.55,9.55,0,0,0,4.72,0c1.67-.38,3.07-1.25,3.45-3A37.72,37.72,0,0,0,72.4,50.12Z"/><path class="cls-4" d="M184.91,22.54c0,2.77,0,5.54,0,8.32,0,.56.14.77.73.75,1.48,0,3,0,4.44,0,.51,0,.69.16.68.68q0,2.46,0,4.92c0,.54-.2.67-.7.66-1.5,0-3,0-4.5,0-.47,0-.65.14-.65.63,0,5.31,0,10.63,0,15.94a2.47,2.47,0,0,0,2.6,2.56c.86,0,1.71,0,2.57,0,.46,0,.67.12.66.62,0,1.92,0,3.84,0,5.76,0,.19-.26.54-.41.54-2.37,0-4.76.22-7.09-.4a8.5,8.5,0,0,1-6.35-7.42c-.14-1.53-.12-3.09-.14-4.63s0-3.1,0-4.64c0-2.73,0-5.46,0-8.18,0-.61-.18-.82-.79-.78s-1.38,0-2.08,0c-.42,0-.64-.12-.63-.58,0-1.69,0-3.38,0-5.06,0-.45.16-.63.61-.61.72,0,1.43,0,2.15,0s.75-.2.74-.76c0-2.75,0-6,0-8.78,0-.66,0-7.5,0-7.83"/><path class="cls-3" d="M41.3,30.9v3c.26-.23.43-.36.59-.51a12,12,0,0,1,13-1.85c2.31,1.19,5.47,4.81,6.19,7.13l-3.9,1.38c-1.31.46-2.62.89-3.92,1.38-.49.19-.72.13-1-.36a6.13,6.13,0,0,0-4.85-3.17,5.43,5.43,0,0,0-5.82,4.93,15.22,15.22,0,0,0-.11,1.79V63.3c0,.9,0,.9-.91.9-2.2,0-4.39,0-6.59,0-.59,0-.8-.14-.8-.77q0-15.95,0-31.89c0-.53.12-.73.69-.72,2.26,0,4.53,0,6.79,0C40.84,30.85,41,30.88,41.3,30.9Z"/><polygon class="cls-5" points="171.97 2.51 197 2.51 197 27.54 171.97 2.51"/></g></g></g></svg>