<svg xmlns="http://www.w3.org/2000/svg" viewBox="0 0 200 200"><defs><style>.cls-1{isolation:isolate;}.cls-2{mix-blend-mode:luminosity;}.cls-3{fill:#595959;}.cls-4{fill:#686868;}.cls-5{fill:#8e8e8e;}.cls-6{fill:#bbb;}.cls-7{fill:#727272;}.cls-8{fill:#202020;}</style></defs><title>Artboard 1</title><g class="cls-1"><g id="Layer_1" data-name="Layer 1"><g class="cls-2"><path class="cls-3" d="M87.73,96.63c-.16-.35-.29-.58-.39-.82C78.15,74.19,68.83,52.62,59.82,30.92,54,16.92,63.41,5.7,73.48,3.43,85.38.74,96.31,8.23,97.74,20.12a36.87,36.87,0,0,1-.43,9.73c-.9,6.21-1.77,12.43-2.65,18.64q-1.41,9.87-2.8,19.75L89,88.07,87.9,96.16A3.19,3.19,0,0,1,87.73,96.63Z"/><path class="cls-4" d="M112.55,96.31q-.83-5.49-1.64-11-1.17-7.83-2.35-15.67l-2.31-15.6c-.83-5.54-1.73-11.07-2.45-16.62a17.92,17.92,0,0,1,.17-5,6.62,6.62,0,0,1,3.7-4.86c.82-.45,1.67-.85,2.48-1.31.64-.36.69-.8,0-1.08a9.57,9.57,0,0,0-2.83-.71,39.09,39.09,0,0,0-4.33,0c-.61,0-.85-.16-.86-.8C102,12.71,108.78,4.93,118.48,3.13,131,.81,140.37,10.36,141.77,19.85a20,20,0,0,1-1.39,10.84q-13.66,32.52-27.36,65c-.09.22-.21.42-.31.63Z"/><path class="cls-5" d="M87.42,103.94c-.36-.22-.59-.35-.8-.5q-27.44-18.8-54.9-37.6a23.29,23.29,0,0,1-8.48-9.5A20.06,20.06,0,0,1,37.08,28.66a19,19,0,0,1,21.53,9.75c1.76,3.23,3.1,6.68,4.58,10.06Q75.12,75.7,87,102.93C87.12,103.21,87.23,103.5,87.42,103.94Z"/><path class="cls-4" d="M113.17,103.72c1.58-3.67,3-7.1,4.52-10.53l22.1-51.36a22.84,22.84,0,0,1,7.67-10.08c6.19-4.33,12.83-4.54,19.53-1.48,6.41,2.92,10.1,8.15,11.18,15,1.26,8.09-1.87,14.55-8.32,19.32-5.52,4.08-11.26,7.85-16.92,11.75L114.1,103.11Z"/><path class="cls-6" d="M89.71,110.7h-.54c-21.23,0-42.45,0-63.68,0a18.7,18.7,0,0,1-12.37-4.8,20.26,20.26,0,0,1,8.21-35,20.57,20.57,0,0,1,13.12,1.63c3.16,1.44,5.85,3.63,8.68,5.59q16.75,11.63,33.48,23.32l12.76,8.9.38.28Z"/><path class="cls-7" d="M110.39,110.73l6.31-4.41,45.65-31.81a20.31,20.31,0,0,1,11-4c6.88-.25,12.36,2.56,16.52,7.92,7.31,9.42,4.62,23.74-5.52,29.82a18.1,18.1,0,0,1-9.56,2.51q-31.75,0-63.52,0C111.05,110.79,110.85,110.76,110.39,110.73Z"/><path class="cls-8" d="M67.38,127.41V147H55.66c0-.33,0-.64,0-1,0-9.86,0-19.73,0-29.59,0-.8.18-1,1-1,5.16,0,10.32,0,15.48,0a1.49,1.49,0,0,1,1.32.67q7,9,14,18.06a2.09,2.09,0,0,0,.81.68V115.57h11.88v31.57h-1c-5.3,0-10.59,0-15.88,0a1.54,1.54,0,0,1-1.4-.7Q75,137.2,68,128l-.49-.62Z"/><path class="cls-8" d="M103.94,115.43h.89c9,0,18,0,27,0a13.72,13.72,0,0,1,7.37,2.16c2.78,1.76,4,4.72,3.15,7.46a5.28,5.28,0,0,1-1.3,2.05c-1.07,1-2.28,1.92-3.47,2.9l.61.33,2,.93c3.22,1.53,4.41,4.08,3.94,7.72-.29,2.2-1.76,3.8-3.49,5.1a15.39,15.39,0,0,1-7.77,2.73,41.33,41.33,0,0,1-4.31.22c-7.81,0-15.62,0-23.42,0h-1.11Zm13,23.72c1.5,0,2.91,0,4.33,0,1.84,0,3.69,0,5.52-.16a3.22,3.22,0,0,0,2.51-1.4,2.15,2.15,0,0,0-1.11-3.3,7.89,7.89,0,0,0-2-.41c-2.46-.09-4.92-.1-7.37-.13-.63,0-1.26,0-2,0v4.65C116.87,138.6,116.9,138.8,116.93,139.15Zm0-17.46c0,1.23,0,2.4,0,3.56,0,.55.17.76.73.75,1.73,0,3.48.06,5.2,0a37.1,37.1,0,0,0,4.19-.61,1.38,1.38,0,0,0,1.23-1.19c.22-1.22-.36-2-1.84-2.31A39.13,39.13,0,0,0,116.9,121.69Z"/><path class="cls-8" d="M191.2,125.18c-.28,0-.51,0-.75,0-3.93,0-7.85,0-11.78,0a1.22,1.22,0,0,1-1-.55,9.57,9.57,0,0,0-2.23-2.13c-3.67-2.18-9.33-1.47-12.53,1.35-3.46,3.06-3.48,8.23-2,11.13,4.11,7.88,13.62,6.7,17.32,1.33a1.23,1.23,0,0,1,1.17-.61c3.77,0,7.54,0,11.31,0h1c-.67,1.23-1.17,2.35-1.85,3.35-2.26,3.33-5.57,5.16-9.33,6.25a44.8,44.8,0,0,1-15.72,1.4,30.05,30.05,0,0,1-9.81-2.18,17.61,17.61,0,0,1-6.06-4.25c-3.82-4.16-4.62-8.91-2.87-14.21,1.15-3.47,3.7-5.69,6.59-7.59a26.58,26.58,0,0,1,11.49-3.94,47.74,47.74,0,0,1,16.34.89,15.13,15.13,0,0,1,9,5.28A7.42,7.42,0,0,1,191.2,125.18Z"/><path class="cls-8" d="M52,126h-.9c-3.88,0-7.76,0-11.63,0a1.32,1.32,0,0,1-1-.36,7.44,7.44,0,0,0-5.2-3.28c-3.64-.66-7-.08-9.76,2.55a9.53,9.53,0,0,0-1.27,12.14,10.15,10.15,0,0,0,16.63.23,1.82,1.82,0,0,1,1.67-.8c3.55,0,7.11,0,10.66,0h1.07c-.23.66-.37,1.24-.61,1.78a13,13,0,0,1-4,4.71c-3.1,2.5-6.75,3.54-10.61,4.13a46.22,46.22,0,0,1-13.89.34,23,23,0,0,1-13.34-6.23A13,13,0,0,1,6,131.64c0-5.89,3.19-9.7,7.91-12.58a27.18,27.18,0,0,1,11-3.6,44.93,44.93,0,0,1,15.93.76,15.87,15.87,0,0,1,9.71,6.06A7.59,7.59,0,0,1,52,126Z"/><path class="cls-7" d="M125.15,197.22v-7.16H131V159.61H138c0,.35.05.66.05,1,0,4,0,8,0,12,0,.69.17.92.89.92,8,0,16,0,24.06,0,.26,0,.52,0,.79,0a35,35,0,0,1-.83-3.64c-.65-5.42.8-10.33,5.45-13.29a12.17,12.17,0,0,1,6.6-2c5.26,0,10.53,0,15.79,0,.26,0,.53,0,.88,0v5.07c0,1.93,0,1.93-1.93,1.93-4.65,0-9.3,0-13.95,0a8.89,8.89,0,0,0-2,.19c-2.37.55-3.74,2.29-3.9,5a10.1,10.1,0,0,0,.17,2.63,4.91,4.91,0,0,0,5.16,4c5.13,0,10.26,0,15.39,0h1c0,.29.06.49.06.7,0,1.87,0,3.74,0,5.61,0,.55-.16.81-.73.75-.26,0-.53,0-.8,0H139.74a7.12,7.12,0,0,1-.8,0c-.65-.07-.88.17-.88.85,0,2.75,0,5.51,0,8.26a11.12,11.12,0,0,1-.3,2.7,6,6,0,0,1-5,4.67c-.18,0-.36.12-.53.17Z"/><path class="cls-7" d="M32.28,152.2h7c0,.35.06.69.06,1v19.25c0,1,0,1,1.07,1q17.44,0,34.88,0c.81,0,1-.19,1-1,0-4.22,0-8.45,0-12.67v-1H83.4v.92c0,4.3,0,8.6,0,12.91,0,.65.16.87.84.86q16.68,0,33.36,0c.73,0,.89-.24.88-.92,0-4,0-8,0-12v-1h7.07c0,.31,0,.65,0,1q0,9.3,0,18.6c0,1.42.23,1.35-1.31,1.35H54.65c-12.3,0-24.6.06-36.89,0a11.42,11.42,0,0,1-10.12-5.65c-2.72-4.46-2.31-12.07,5.2-15.46a12.8,12.8,0,0,1,5.43-1.19c4.33,0,8.66,0,13,0,.81,0,1.06-.22,1-1C32.24,155.59,32.28,153.93,32.28,152.2Zm-7.64,21.31c2.28,0,4.55,0,6.82,0,.63,0,.84-.19.83-.82,0-2.14,0-4.28,0-6.42,0-.76-.21-1-1-1-4.36,0-8.72-.05-13.07.06a7.1,7.1,0,0,0-3.3,1,3.6,3.6,0,0,0-.27,5.93,5.46,5.46,0,0,0,3.41,1.21C20.26,173.52,22.45,173.51,24.64,173.51Z"/><path class="cls-7" d="M26.05,150.72a2.47,2.47,0,1,1-.07,4.94,2.47,2.47,0,0,1,.07-4.94Z"/><path class="cls-7" d="M75.62,188.58a2.4,2.4,0,0,1-2.46-2.49,2.45,2.45,0,0,1,2.43-2.46,2.51,2.51,0,0,1,2.52,2.47A2.45,2.45,0,0,1,75.62,188.58Z"/><path class="cls-7" d="M17.52,150.72a2.47,2.47,0,1,1,0,4.94,2.47,2.47,0,0,1,0-4.94Z"/><path class="cls-7" d="M124.06,186.09a2.42,2.42,0,0,1-2.46,2.49,2.49,2.49,0,0,1-2.51-2.4,2.55,2.55,0,0,1,2.45-2.56A2.49,2.49,0,0,1,124.06,186.09Z"/><path class="cls-7" d="M84.11,188.58a2.42,2.42,0,0,1-2.48-2.48,2.47,2.47,0,0,1,2.43-2.47,2.54,2.54,0,0,1,2.55,2.46A2.49,2.49,0,0,1,84.11,188.58Z"/></g></g></g></svg>