<svg xmlns="http://www.w3.org/2000/svg" viewBox="0 0 200 93.46"><defs><style>.cls-1{isolation:isolate;}.cls-2{mix-blend-mode:luminosity;}.cls-3{fill:#656565;}.cls-4{fill:#202020;}</style></defs><title>Artboard 4</title><g class="cls-1"><g id="Layer_1" data-name="Layer 1"><g class="cls-2"><path class="cls-3" d="M1.4,74.66C34.65,78.41,78.71,81.11,102.79,78c23.35-3.07,31.72-5.59,53.72-6,28.21-.46,30.75,1.25,42.09,6.87v11c-2.24-17.13-104.81-8.29-79.69-8.29,14.77,0-39.06,2.63-54.32,1.32C48.5,81.57,1.4,74.66,1.4,74.66"/><path class="cls-4" d="M38.14,21.11c.38,0,1.26-.21,1.26.45,0,1.07-2.38-.1-2.38,3.31V35.26C32.21,36.94,31,40.4,22.64,40.4c-10.32,0-16.72-7-16.72-18.27,0-11,7.57-18.59,17.47-18.59C31.47,3.54,33.8,7,35.11,7c.51,0,.7-.92,1.21-.92s.47.77.52,1.18l.46,6.67c0,.4,0,.91-.51.91C35.58,14.84,33.47,5,22.45,5,14.05,5,9.84,12.76,9.84,21.16c0,9,4.77,17.61,13.78,17.61,4.25,0,9.71-2.29,9.71-6.62V24.26c0-2.39-4.06-1.32-4.06-2.59,0-.67.65-.56,1.07-.56Z"/><path class="cls-4" d="M74.57,24c0-6.26-4.07-11.26-11.63-11.26-7,0-11.68,4.89-11.68,12.23,0,7.07,4.91,11.3,11.82,11.3C69,36.23,74.57,31.55,74.57,24m-3.69.71c0,6.88-3.36,10.13-7.52,10.13C58.55,34.8,55,30.88,55,24.26c0-6.46,3.09-10.43,7.8-10.43,4.48,0,8.13,3.81,8.13,10.84"/><path class="cls-4" d="M80.56,17.19c0-3,.33-3.36,2.53-3.36,3.31,0,5.65,1.47,5.65,5.19,0,3.31-2.29,3.61-5.79,3.61-2.2,0-2.39-.3-2.39-1.62ZM77.15,32c0,3.52-2.84,2-2.84,3.52,0,.4.23.51.7.51,1,0,2.47-.21,4.39-.21,1.4,0,2.85.21,4.25.21,7.19,0,10.41-3.31,10.41-7.23,0-3.42-2.29-5.2-5.51-5.91v-.1A4.51,4.51,0,0,0,92.15,18c0-3.41-2.85-5.25-6.68-5.25-1.54,0-2.76.11-3.83.21-1.26.1-2.38.2-3.83.2a12.54,12.54,0,0,1-1.45-.1,14.71,14.71,0,0,0-1.68-.1c-.51,0-.89.2-.89.61,0,1.27,3.36.2,3.36,2.95Zm3.41-6.31c0-1.27.19-1.32,4.11-1.32,4.39,0,5.7,1.83,5.7,5,0,3-1.4,5.24-6.54,5.24-2.89,0-3.27-.51-3.27-1.73Z"/><path class="cls-4" d="M65.9,41.5c0-2.7-3.6-1.93-3.6-2.85,0-.26.14-.46.66-.46,1.26,0,2.71.21,4.15.21s3.13-.21,4.53-.21c.29,0,.47.15.47.41,0,1.32-2.8.15-2.8,2.6V58c0,2.7,3.64,1.93,3.64,2.85,0,.25-.14.46-.65.46-1.26,0-2.71-.21-4.16-.21s-3.13.21-4.53.21c-.28,0-.47-.15-.47-.41,0-1.32,2.76-.15,2.76-2.6Z"/><path class="cls-4" d="M142.87,43.08c0-4.43-4.2-3.16-4.2-4.43,0-.31.37-.46.7-.46,1.07,0,2.62.21,3.92.21,1.73,0,2.94-.21,3.88-.21a.48.48,0,0,1,.51.51c0,1-3.08,0-3.08,4v18c0,.61-.19.86-.79.86-.38,0-.7-.2-1.5-1.12l-14.39-17-.27.05v13.8c0,3.66,4,2.13,4,3.66,0,.31-.33.36-.84.36-1.31,0-2.76-.21-4-.21s-2.53.21-3.65.21c-.37,0-.65-.15-.65-.46,0-1.43,3.22,0,3.22-5.35V42.67c0-4.07-4.06-2.9-4.06-4.12,0-.21.23-.36.75-.36s1.21.21,2.38.21c1,0,1.63-.21,2.47-.21a1.87,1.87,0,0,1,1.54.77L142.55,55.3l.32-.2Z"/><path class="cls-4" d="M158.53,59.39a9.44,9.44,0,0,0,7.05-3.31c.23-.31.42-.61.79-.61a.46.46,0,0,1,.43.51c0,.71-3.41,5.14-9.63,5.14S146.85,56.59,146.85,50c0-7.23,5.42-12.37,11.73-12.37a12.27,12.27,0,0,1,3.87.86,13,13,0,0,0,2.52.92c.75,0,1.31-.61,1.45-.61s.33.15.33.92c0,2.34.37,5.6.37,6.31,0,.41-.19.61-.51.61s-.52-.31-.89-1.48c-1-3.15-3.46-6.41-7.47-6.41-5.19,0-8,4.48-8,9.83,0,8.3,4.63,10.84,8.27,10.84"/><path class="cls-4" d="M174.83,57.54c0,1.53,1.07,2,3.64,2,6.35,0,7.38-3.77,8-3.77.23,0,.33.25.33.56a6.76,6.76,0,0,1-1.92,4c-.84.76-1.54,1-3.6,1-1.72,0-3.5-.21-5.74-.21s-4.62.21-6.21.21c-.47,0-.89-.15-.89-.46,0-1.12,3,0,3-3.21V41.91c0-2.95-3.13-2.14-3.13-3.21,0-.36.28-.51.75-.51,1.91,0,4.9.21,7.8.21,3.27,0,7.38-.21,7.94-.21a.52.52,0,0,1,.46.51c0,.61,0,1.43,0,4.43,0,.61-.19.82-.52.82s-.51-.87-.6-1.48c-.28-1.84-2-2.55-5.56-2.55-2.43,0-3.69,0-3.69,1.48v6.87h4.3c3.36,0,2.52-3,3.55-3a.51.51,0,0,1,.51.56c0,.61-.14,1.63-.14,2.7,0,1.58.09,3,.09,4.33,0,.56-.18.76-.6.76-.89,0-.1-3.51-3.32-3.51h-4.39Z"/><path class="cls-4" d="M95.08,43.08c0-4.43-4.2-3.16-4.2-4.43,0-.31.37-.46.7-.46,1.07,0,2.61.21,3.92.21,1.73,0,2.94-.21,3.88-.21a.48.48,0,0,1,.51.51c0,1-3.08,0-3.08,4v18c0,.61-.19.86-.8.86-.37,0-.7-.2-1.49-1.12l-14.38-17-.28.05v13.8c0,3.66,4,2.13,4,3.66,0,.31-.32.36-.84.36-1.31,0-2.75-.21-4-.21s-2.52.21-3.64.21c-.37,0-.65-.15-.65-.46,0-1.43,3.22,0,3.22-5.35V42.67c0-4.07-4.06-2.9-4.06-4.12,0-.21.23-.36.74-.36s1.22.21,2.39.21c1,0,1.63-.21,2.47-.21A1.86,1.86,0,0,1,81,39L94.75,55.3l.33-.2Z"/><path class="cls-4" d="M46.85,53.35c0,1.73-.1,1.73,1.77,1.73h5.05c4.85,0,3.59-4.08,4.71-4.08.38,0,.52.56.52,1,0,1.78-.1,3.52-.1,5.14,0,1.33.1,2.65.1,4,0,.45-.19.66-.52.66-1.44,0,.14-4.48-3.78-4.48H47.69c-1.08,0-.84.86-.84,1.63V69.23c0,4.84,4.39,3.52,4.39,4.69,0,.71-.7.71-1,.71a29.8,29.8,0,0,0-5.14-.25c-2.38,0-4,.25-4.85.25a.47.47,0,0,1-.47-.46c0-1.42,3.41,0,3.41-5.6V45.1c0-2.29,0-4.74-2.52-5.14-.38-.11-1.41-.21-1.41-.82,0-.41.29-.61,1.64-.61,8.83,0,11.25.2,13.22.2.93,0,5.23-.2,6.67-.2.38,0,.47.51.47,1.12,0,5.65-.65,6.06-.93,6.06-1.12,0-.38-2.45-1.12-3.62-1.22-1.73-6.07-1.42-7.94-1.42-4.49,0-4.39-.21-4.39,3.21Z"/><path class="cls-4" d="M42,16.42c0-2.7-3.37-1.78-3.37-2.9a.54.54,0,0,1,.56-.61c1.17,0,2.48.2,4.39.2s3.27-.2,4.11-.2a.53.53,0,0,1,.52.51c0,.92-2.8.56-2.8,3.31V33c0,1.22.56,1.48,3.22,1.48,6.68,0,8.83-3.49,9.48-3.49.23,0,.47.26.47.76,0,4.84-5.23,4.41-7.15,4.41-.89,0-2.05,0-3.17-.15s-2.34-.21-3.23-.21c-1.12,0-2.1,0-2.84.1s-1.36.11-1.83.11c-.65,0-.93-.05-.93-.41,0-1,2.57-.46,2.57-3Z"/><path class="cls-4" d="M126,16.64c0-2.75,2.8-2.4,2.8-3.31a.52.52,0,0,0-.51-.51c-.84,0-2.1.2-4.11.2s-3.22-.2-4.39-.2a.54.54,0,0,0-.56.61c0,1.12,3.36.2,3.36,2.9V30.26A14.08,14.08,0,0,1,126,31.81Z"/><path class="cls-4" d="M122.61,32.59c0,2.47-2.56,2-2.56,2.94,0,.35.28.41.93.41.47,0,1-.06,1.82-.11s1.73-.1,2.85-.1c.5,0,1.08,0,1.7.08a12,12,0,0,0-4.74-3.22"/><path class="cls-4" d="M137.79,31.3c0-.51-.23-.76-.47-.76-.65,0-1.4,3.87-8.07,3.87h-.18A14.12,14.12,0,0,1,130.29,36c.64,0,1.25.05,1.76.05,1.91,0,5.74,0,5.74-4.79"/><path class="cls-4" d="M109,35.61c0,.36.15.51.52.51,1.47,0,3.12-.21,4.67-.21,1.28,0,2.69.21,3.59.21s1.13-.15,1.13-.56c0-.83-2.78-.42-3.77-3l-.19-.48a13.25,13.25,0,0,0-3.52,1.17c-.25,1.92-2.43,1.43-2.43,2.35"/><path class="cls-4" d="M108.4,25.78h-6.28a.3.3,0,0,1-.33-.31,4.31,4.31,0,0,1,.43-1l2.59-5.24c.29-.57.33-1,.57-1s.24.36.66,1.28l2.27,4.94a4.16,4.16,0,0,1,.42,1,.29.29,0,0,1-.33.31m-1.18-12.45c-.19-.41-.24-.77-.57-.77s-.42.36-.8,1.08c-1.08,2-4.71,8.49-9.2,18.26-1.56,3.4-3.44,3.14-3.44,3.86,0,.31.14.36.42.36.71,0,2.5-.21,3.82-.21,1.66,0,3,.21,4,.21.47,0,.66-.21.66-.51,0-.47-.38-.57-1.18-.62-1.51-.16-2.5-.82-2.5-2.11,0-.51.23-1.29,1.55-4,.38-.78.71-1.13,1.23-1.13h7.65c.66,0,.84.35,1.22,1.18s.71,1.57.92,2.09a16.54,16.54,0,0,1,3.17-1c-2.1-5.34-5-12.49-6.92-16.66"/><path class="cls-4" d="M126,32.93V31.81a14.08,14.08,0,0,0-3.41-1.55v2.33a12,12,0,0,1,4.74,3.22c.49,0,1,.08,1.52.13l1.42.1a14.12,14.12,0,0,0-1.22-1.63c-2.51,0-3-.29-3-1.48"/><path class="cls-4" d="M111,31a4.85,4.85,0,0,1,.5,1.87,2.25,2.25,0,0,1,0,.38A13.25,13.25,0,0,1,115,32.09c-.25-.66-.53-1.36-.82-2.1A16.54,16.54,0,0,0,111,31"/><path class="cls-4" d="M113.2,60.8c0,.36.14.51.52.51,1.47,0,3.12-.2,4.67-.2,1.28,0,2.69.2,3.59.2.75,0,1.13-.15,1.13-.56,0-.82-2.78-.41-3.77-3l-.19-.48a14,14,0,0,0-3.52,1.17c-.25,1.92-2.43,1.43-2.43,2.35"/><path class="cls-4" d="M112.59,51h-6.27a.29.29,0,0,1-.33-.31,4,4,0,0,1,.42-1L109,44.44c.29-.57.33-1,.57-1s.24.36.66,1.29l2.27,4.94a4,4,0,0,1,.42,1,.29.29,0,0,1-.33.31m-1.18-12.45c-.19-.41-.24-.77-.57-.77s-.42.36-.8,1.08c-1.08,2.06-4.72,8.49-9.2,18.26-1.56,3.4-3.44,3.14-3.44,3.86,0,.31.14.36.42.36.71,0,2.5-.2,3.82-.2,1.66,0,3,.2,4,.2.47,0,.66-.2.66-.51s-.38-.57-1.18-.62c-1.51-.15-2.5-.82-2.5-2.11,0-.51.23-1.28,1.55-4,.38-.77.71-1.13,1.23-1.13H113c.66,0,.85.36,1.23,1.18s.71,1.57.92,2.09a17.27,17.27,0,0,1,3.17-1c-2.1-5.34-5-12.49-6.92-16.66"/><path class="cls-4" d="M115.16,56.2a4.85,4.85,0,0,1,.5,1.87,2.25,2.25,0,0,1,0,.38,14,14,0,0,1,3.52-1.17l-.82-2.1a17.27,17.27,0,0,0-3.17,1"/></g></g></g></svg>