<svg xmlns="http://www.w3.org/2000/svg" viewBox="0 0 200 54.34"><defs><style>.cls-1{isolation:isolate;}.cls-2{mix-blend-mode:luminosity;}.cls-3{fill:#3b3b3b;}.cls-4{fill:#9d9d9d;}</style></defs><title>Artboard 3</title><g class="cls-1"><g id="Layer_1" data-name="Layer 1"><g class="cls-2"><path class="cls-3" d="M59.41,7.72V2h22V7.72h-7.8v17.5H67.14V7.72Z"/><path class="cls-3" d="M91.51,8.28a6.83,6.83,0,0,1,3.12-.67,6.61,6.61,0,0,1,2.71.48,4.12,4.12,0,0,1,1.79,1.38,5.64,5.64,0,0,1,1,2.15,12.91,12.91,0,0,1,.3,2.82V25.26H94V15.78a10,10,0,0,0-.07-1.08,4.39,4.39,0,0,0-.26-1A1.72,1.72,0,0,0,93,13a2.14,2.14,0,0,0-1.12-.26,2.45,2.45,0,0,0-1.89.78,3.88,3.88,0,0,0-.71,2.68v9H82.85V2h6.43v8.29A5.92,5.92,0,0,1,91.51,8.28Z"/><path class="cls-3" d="M107.26,25a8.45,8.45,0,0,1-3-1.94,8,8,0,0,1-1.85-2.93,10.12,10.12,0,0,1-.64-3.75,9.61,9.61,0,0,1,.71-3.76,8.69,8.69,0,0,1,2-2.86,9.23,9.23,0,0,1,2.93-1.82A9.93,9.93,0,0,1,111,7.31a9.6,9.6,0,0,1,4.08.82,9.49,9.49,0,0,1,3.05,2.3A9.16,9.16,0,0,1,120,13.85a11.16,11.16,0,0,1,.45,4.2H108a3.28,3.28,0,0,0,1,2.12,3.55,3.55,0,0,0,2.41.78,4.19,4.19,0,0,0,1.79-.41,2.41,2.41,0,0,0,1.15-1.12h6a8.54,8.54,0,0,1-1,2,7.61,7.61,0,0,1-1.82,2A9.39,9.39,0,0,1,114.92,25a9.67,9.67,0,0,1-3.57.63A10.94,10.94,0,0,1,107.26,25Zm3.16-13.12a4.15,4.15,0,0,0-1,.48,3.54,3.54,0,0,0-.82.86,3.14,3.14,0,0,0-.52,1.3h6.69a3.49,3.49,0,0,0-.37-1.3,3.2,3.2,0,0,0-.82-.86,3.91,3.91,0,0,0-1-.48,3.66,3.66,0,0,0-1.08-.15A3.4,3.4,0,0,0,110.42,11.88Z"/><path class="cls-3" d="M73.6,37.26V52H67.18V28.71h8.24L82.89,43.5V28.71h6.43V52H81Z"/><path class="cls-3" d="M101.84,39.41a2.23,2.23,0,0,0-.56-.71,2.76,2.76,0,0,0-.82-.33,4.21,4.21,0,0,0-1-.11,3.12,3.12,0,0,0-2,.56,2.34,2.34,0,0,0-.93,1.67H91.1a6.33,6.33,0,0,1,.71-2.38,6.24,6.24,0,0,1,1.71-2,7.91,7.91,0,0,1,2.71-1.41A11.17,11.17,0,0,1,100,34.1a14.18,14.18,0,0,1,3.42.37,6.89,6.89,0,0,1,2.67,1.26,6.32,6.32,0,0,1,1.75,2.34,8.77,8.77,0,0,1,.59,3.64l0,3.31v1.71c0,.59,0,1.19,0,1.82s.08,1.23.12,1.82.11,1.12.15,1.6h-6V49.74a5.31,5.31,0,0,1-2.49,2,9.07,9.07,0,0,1-3.38.6A7.21,7.21,0,0,1,94.45,52a6.39,6.39,0,0,1-2-1,5,5,0,0,1-1.34-1.63,4.38,4.38,0,0,1-.48-2.12,4.67,4.67,0,0,1,.74-2.6,5.55,5.55,0,0,1,2.23-1.82,13.26,13.26,0,0,1,3.6-1.15,40.36,40.36,0,0,1,4.87-.59v-.49A3.15,3.15,0,0,0,101.84,39.41Zm-3.42,5.5a1.66,1.66,0,0,0-1.3,1.63,1.42,1.42,0,0,0,.48,1,2.21,2.21,0,0,0,1.64.52,4.4,4.4,0,0,0,1.19-.14,2.74,2.74,0,0,0,1-.52,2.32,2.32,0,0,0,.67-1,5.12,5.12,0,0,0,.22-1.64v-.52A13.63,13.63,0,0,0,98.42,44.91Z"/><path class="cls-3" d="M118.37,30v4.76h4.39v4.05h-4.39v7.69a1.24,1.24,0,0,0,.3,1,1.61,1.61,0,0,0,.93.22h3.16V52h-4.43a23.26,23.26,0,0,1-3-.15,4.76,4.76,0,0,1-2-.67,3,3,0,0,1-1.08-1.56,9.74,9.74,0,0,1-.34-2.83v-8h-3.45V34.73h3.45V30Z"/><path class="cls-3" d="M130.67,33.28h-6.43V28.71h6.43Zm0,18.69h-6.43V34.73h6.43Z"/><path class="cls-3" d="M137.84,51.82a8.5,8.5,0,0,1-3.05-1.71,7.91,7.91,0,0,1-2-2.82,9.43,9.43,0,0,1-.74-4,10,10,0,0,1,.74-4,8.47,8.47,0,0,1,2-2.83,8.66,8.66,0,0,1,3.05-1.71,11.91,11.91,0,0,1,3.64-.59,10.9,10.9,0,0,1,3.64.59,8.75,8.75,0,0,1,3,1.71,8.43,8.43,0,0,1,2.08,2.83,10.52,10.52,0,0,1,0,7.95,7.66,7.66,0,0,1-2.08,2.82,8.59,8.59,0,0,1-3,1.71,11.71,11.71,0,0,1-3.64.56A12.08,12.08,0,0,1,137.84,51.82Zm1.63-11.89a5.22,5.22,0,0,0-.81,3.38,7.85,7.85,0,0,0,.22,2,3.62,3.62,0,0,0,.59,1.31,2.19,2.19,0,0,0,.93.7,2.91,2.91,0,0,0,1.15.22,3.07,3.07,0,0,0,1.16-.22,2.46,2.46,0,0,0,.93-.7,3.88,3.88,0,0,0,.59-1.31,7.85,7.85,0,0,0,.22-2,5.56,5.56,0,0,0-.81-3.38,2.65,2.65,0,0,0-2-1A2.79,2.79,0,0,0,139.47,39.93Z"/><path class="cls-3" d="M161,35a6.83,6.83,0,0,1,3.12-.67,6.69,6.69,0,0,1,2.72.48,4.48,4.48,0,0,1,1.78,1.38,5.64,5.64,0,0,1,1,2.15,12.84,12.84,0,0,1,.3,2.82V52h-6.43V42.49a9.61,9.61,0,0,0-.07-1.07,3.93,3.93,0,0,0-.26-1,1.66,1.66,0,0,0-.63-.71,2.14,2.14,0,0,0-1.12-.26,2.43,2.43,0,0,0-1.89.79,3.92,3.92,0,0,0-.71,2.67v9h-6.42V34.73h6.42V37A5.28,5.28,0,0,1,161,35Z"/><path class="cls-3" d="M182.42,39.41a2.1,2.1,0,0,0-.56-.71,2.81,2.81,0,0,0-.81-.33,4.3,4.3,0,0,0-1-.11,3.14,3.14,0,0,0-2,.56,2.37,2.37,0,0,0-.93,1.67h-5.49a6.14,6.14,0,0,1,.7-2.38,6.37,6.37,0,0,1,1.71-2,7.91,7.91,0,0,1,2.71-1.41,11.21,11.21,0,0,1,3.75-.56,14.18,14.18,0,0,1,3.42.37,7,7,0,0,1,2.68,1.26,6.3,6.3,0,0,1,1.74,2.34,8.76,8.76,0,0,1,.6,3.64L189,45v1.71c0,.59,0,1.19,0,1.82s.07,1.23.11,1.82.11,1.12.15,1.6h-6V49.74a5.36,5.36,0,0,1-2.49,2,9.07,9.07,0,0,1-3.38.6A7.23,7.23,0,0,1,175,52a6.63,6.63,0,0,1-2-1,5.13,5.13,0,0,1-1.33-1.63,4.39,4.39,0,0,1-.49-2.12,4.59,4.59,0,0,1,.75-2.6,5.51,5.51,0,0,1,2.22-1.82,13.45,13.45,0,0,1,3.61-1.15,40.11,40.11,0,0,1,4.87-.59v-.49A2.53,2.53,0,0,0,182.42,39.41ZM179,44.91a1.66,1.66,0,0,0-1.3,1.63,1.42,1.42,0,0,0,.48,1,2.16,2.16,0,0,0,1.63.52A4.4,4.4,0,0,0,181,48a2.78,2.78,0,0,0,1-.52,2.41,2.41,0,0,0,.67-1,5.42,5.42,0,0,0,.22-1.64v-.52A14,14,0,0,0,179,44.91Z"/><path class="cls-3" d="M190.37,52V28.71h6.43V52Z"/><polygon class="cls-3" points="39.13 2 39.13 9.8 45.37 9.8 45.37 44.17 39.13 44.17 39.13 51.97 53.17 51.97 53.17 2 39.13 2"/><polygon class="cls-3" points="3.2 51.97 17.24 51.97 17.24 44.17 11 44.17 11 9.8 17.24 9.8 17.24 2 3.2 2 3.2 51.97"/><polygon class="cls-4" points="20.4 2 20.4 9.8 36.01 26.96 36.01 2 20.4 2"/><polygon class="cls-4" points="20.4 51.97 36.01 51.97 36.01 44.17 20.4 26.96 20.4 51.97"/></g></g></g></svg>