<svg xmlns="http://www.w3.org/2000/svg" viewBox="0 0 200 75.63"><defs><style>.cls-1{isolation:isolate;}.cls-2{mix-blend-mode:luminosity;}.cls-3{fill:#a2a2a2;}.cls-4{fill:#666;}</style></defs><title>Artboard 5</title><g class="cls-1"><g id="Layer_1" data-name="Layer 1"><g class="cls-2"><path class="cls-3" d="M2.43,70.34V63.6L22.71,36.41H3.05V29.86h28.4v6.73L11.18,63.78H32.07v6.56ZM59.89,29.86H51.45L36.64,70.34h7.69l3.22-9.54H63.76L67,70.34h7.72ZM49.68,54.4l6-17.74,6,17.74ZM113.1,58l6.77-28.2h7.68L116.68,70.34h-7.1l-8.26-32.16-9,32.16h-7.1L74.92,29.86h7.64L88.8,58l8.27-28.15h8.44L113.1,58Zm37.09-3.66-.32,16h-7.59v-16L129.56,29.86h8l8.49,17.8,9.16-17.81h8l-13,24.48Zm32.56-24.49h-8.44L159.5,70.34h7.71l3.22-9.54h16.2l3.22,9.54h7.72ZM172.56,54.4l6-17.74,6,17.74Zm17.89-24.57v.76h-1.09v3.14h-.86V30.59h-1.09v-.73h3Zm1.44,1.62v2.28H191V29.86H192L193,32.27l1.08-2.42h.94v3.86h-.83V31.42l-.72,1.7h-.9l-.73-1.68Z"/><path class="cls-4" d="M7.82,7.53v8.78H5.47V7.52h-3v-2h8.39V7.53Zm5.24-2.06h2.35V9.81h4.33V5.47h2.35V16.31H19.74V11.87H15.41v4.44H13.06Zm16.26-.18c3.5,0,5.17,2.39,5.17,5.6s-1.67,5.6-5.17,5.6-5.17-2.4-5.17-5.6S25.83,5.29,29.32,5.29Zm2.8,5.6c0-2.11-.81-3.61-2.8-3.61s-2.8,1.5-2.8,3.61.83,3.58,2.8,3.58S32.12,13,32.12,10.89Zm4.46-5.42h2.35l3.38,7.14,3.38-7.14H48V16.31H45.76V10.1l-2.31,4.82H41.17l-2.31-4.8v6.19H36.58Zm17.64,11a11.36,11.36,0,0,1-3.89-.81l.54-1.9a9.11,9.11,0,0,0,3.35.76c1.19,0,1.93-.3,1.93-1.17s-.54-1.08-2.17-1.45c-2.35-.45-3.67-1.26-3.67-3.3,0-2.53,1.68-3.33,4.09-3.33a8.63,8.63,0,0,1,3.7.76l-.4,1.88a8.42,8.42,0,0,0-3.25-.72c-1.19,0-1.77.25-1.77,1.15s.54,1,2.26,1.4c2.31.54,3.58,1.22,3.58,3.34S57,16.48,54.23,16.48Zm11-11.2c3.51,0,5.17,2.39,5.17,5.6s-1.66,5.6-5.17,5.6S60,14.09,60,10.89,61.7,5.29,65.2,5.29Zm2.8,5.6c0-2.11-.85-3.61-2.82-3.61s-2.8,1.5-2.8,3.61.82,3.58,2.79,3.58S68,13,68,10.89Zm4.34-5.42h2.37l4.78,6.87V5.47h2.32V16.31H79.46l-4.81-6.9v6.87H72.36V5.51ZM96.1,12.16l2.83,4.15H96l-2.42-3.84H91.83v3.84H89.45V5.47H94.6A3.34,3.34,0,0,1,98.25,9a3.31,3.31,0,0,1-2.17,3.2ZM94.25,7.39H91.87v3.2h2.4A1.49,1.49,0,0,0,95.9,9a1.48,1.48,0,0,0-1.63-1.57Zm6.47-1.92h7.41V7.53h-5.06V9.74h4.74V11.8h-4.74v2.44h5.06v2h-7.41V5.47Zm18.79,6.69A4.16,4.16,0,0,1,115,16.49c-3.07,0-4.55-2-4.55-4.33V5.47h2.35v6.87a2.19,2.19,0,0,0,4.37,0V5.47h2.38Zm7.32-4.63v8.78h-2.35V7.52h-3v-2h8.36V7.53h-3ZM132,5.47h7.44V7.53h-5.06V9.74h4.74V11.8h-4.74v2.44h5.06v2H132V5.51Zm16.3,6.69,2.83,4.15h-3l-2.4-3.84H144v3.84h-2.35V5.47h5.14A3.34,3.34,0,0,1,150.45,9a3.32,3.32,0,0,1-2.17,3.2Zm-1.85-4.75H144V10.6h2.4A1.48,1.48,0,0,0,148.06,9,1.46,1.46,0,0,0,146.43,7.41Zm9.94,9.08a11.46,11.46,0,0,1-3.9-.81l.5-1.9a9.25,9.25,0,0,0,3.37.76c1.19,0,1.93-.3,1.93-1.17s-.54-1.08-2.17-1.45c-2.35-.45-3.67-1.26-3.67-3.3,0-2.53,1.72-3.33,4.1-3.33a8.68,8.68,0,0,1,3.69.76l-.42,1.88a8.34,8.34,0,0,0-3.25-.72c-1.15,0-1.75.25-1.75,1.15s.54,1,2.26,1.4c2.31.54,3.58,1.22,3.58,3.34s-1.56,3.38-4.29,3.38Z"/></g></g></g></svg>